<svg width="16" height="16" viewBox="0 0 16 16" fill="none" xmlns="http://www.w3.org/2000/svg">
<path d="M8.99968 11.5684C8.99968 11.7912 9.26896 11.9027 9.42646 11.7452L13.6567 7.515C14.0471 7.12453 14.6802 7.12453 15.0707 7.515C15.4611 7.90547 15.4611 8.53854 15.0707 8.929L8.70679 15.2929C8.31626 15.6834 7.6831 15.6834 7.29257 15.2929L0.92868 8.929C0.538214 8.53853 0.538214 7.90547 0.92868 7.515C1.31914 7.12453 1.95221 7.12453 2.34268 7.515L6.5729 11.7452C6.73039 11.9027 6.99968 11.7912 6.99968 11.5684V1C6.99968 0.447715 7.44739 0 7.99968 0C8.55196 0 8.99968 0.447715 8.99968 1V11.5684Z" fill="currentColor"/>
</svg>
