<svg width="20" height="20" viewBox="0 0 20 20" fill="none" xmlns="http://www.w3.org/2000/svg">
<path fill-rule="evenodd" clip-rule="evenodd" d="M5.08464 3C3.93333 3 3 3.93332 3 5.08464V14.9154C3 16.0667 3.93332 17 5.08464 17H14.9154C16.0667 17 17 16.0667 17 14.9154V11.7555H15.442V14.7618C15.442 15.1374 15.1374 15.442 14.7618 15.442H5.23824C4.86255 15.442 4.55799 15.1374 4.55799 14.7618V5.23824C4.55799 4.86255 4.86255 4.55799 5.23824 4.55799H8.24451V3H5.08464ZM11.0087 3C10.7906 3 10.6138 3.17684 10.6138 3.39498V4.16113C10.6138 4.37928 10.7906 4.55612 11.0087 4.55612H14.3432L10.2451 8.65464C10.0909 8.80889 10.0909 9.05897 10.2451 9.21322L10.7868 9.75486C10.941 9.90911 11.1911 9.90911 11.3454 9.75486L15.4439 5.65634V8.99124C15.4439 9.20938 15.6207 9.38622 15.8389 9.38622H16.605C16.8231 9.38622 17 9.20938 17 8.99124V3H11.0087Z" fill="#596699"/>
</svg>
