<svg width="22" height="22" viewBox="0 0 22 22" fill="none" xmlns="http://www.w3.org/2000/svg">
<path d="M11 1C16.5228 1 21 5.47715 21 11C21 16.5228 16.5228 21 11 21C5.47715 21 1 16.5228 1 11C1 5.47715 5.47715 1 11 1ZM11 2.59961C6.36081 2.59961 2.59961 6.36081 2.59961 11C2.59961 15.6392 6.36081 19.4004 11 19.4004C15.6392 19.4004 19.4004 15.6392 19.4004 11C19.4004 6.36081 15.6392 2.59961 11 2.59961ZM15.1055 7.29395C15.4628 6.93667 16.0418 6.93616 16.3994 7.29297C16.7572 7.65049 16.758 8.2312 16.4004 8.58887L10.377 14.6113C9.96693 15.0206 9.30242 15.0209 8.89258 14.6113L5.69336 11.4121C5.33617 11.0547 5.33617 10.4746 5.69336 10.1172C6.05077 9.75978 6.63078 9.75992 6.98828 10.1172L9.24609 12.375C9.46079 12.5897 9.80863 12.5895 10.0234 12.375L15.1055 7.29395Z" fill="#329D6B"/>
<path d="M11 1V0.777778V1ZM21 11H21.2222H21ZM11 21V21.2222V21ZM1 11H0.777778H1ZM11 2.59961V2.37739V2.59961ZM2.59961 11H2.37739H2.59961ZM11 19.4004V19.6226V19.4004ZM19.4004 11H19.6226H19.4004ZM15.1055 7.29395L15.2626 7.4511L15.2626 7.45109L15.1055 7.29395ZM16.3994 7.29297L16.5565 7.13578L16.5564 7.13565L16.3994 7.29297ZM16.4004 8.58887L16.5575 8.74601L16.5575 8.746L16.4004 8.58887ZM10.377 14.6113L10.5339 14.7686L10.5341 14.7685L10.377 14.6113ZM8.89258 14.6113L8.73544 14.7685L8.73549 14.7685L8.89258 14.6113ZM5.69336 11.4121L5.53617 11.5692L5.53622 11.5692L5.69336 11.4121ZM5.69336 10.1172L5.53622 9.96005L5.53617 9.96011L5.69336 10.1172ZM6.98828 10.1172L7.14542 9.96005L7.14536 9.96L6.98828 10.1172ZM9.24609 12.375L9.40323 12.2179L9.24609 12.375ZM10.0234 12.375L10.1805 12.5322L10.1806 12.5322L10.0234 12.375ZM11 1V1.22222C16.4001 1.22222 20.7778 5.59988 20.7778 11H21H21.2222C21.2222 5.35442 16.6456 0.777778 11 0.777778V1ZM21 11H20.7778C20.7778 16.4001 16.4001 20.7778 11 20.7778V21V21.2222C16.6456 21.2222 21.2222 16.6456 21.2222 11H21ZM11 21V20.7778C5.59988 20.7778 1.22222 16.4001 1.22222 11H1H0.777778C0.777778 16.6456 5.35442 21.2222 11 21.2222V21ZM1 11H1.22222C1.22222 5.59988 5.59988 1.22222 11 1.22222V1V0.777778C5.35442 0.777778 0.777778 5.35442 0.777778 11H1ZM11 2.59961V2.37739C6.23808 2.37739 2.37739 6.23808 2.37739 11H2.59961H2.82183C2.82183 6.48354 6.48354 2.82183 11 2.82183V2.59961ZM2.59961 11H2.37739C2.37739 15.7619 6.23808 19.6226 11 19.6226V19.4004V19.1782C6.48354 19.1782 2.82183 15.5165 2.82183 11H2.59961ZM11 19.4004V19.6226C15.7619 19.6226 19.6226 15.7619 19.6226 11H19.4004H19.1782C19.1782 15.5165 15.5165 19.1782 11 19.1782V19.4004ZM19.4004 11H19.6226C19.6226 6.23808 15.7619 2.37739 11 2.37739V2.59961V2.82183C15.5165 2.82183 19.1782 6.48354 19.1782 11H19.4004ZM15.1055 7.29395L15.2626 7.45109C15.5333 7.18045 15.9717 7.18015 16.2425 7.45029L16.3994 7.29297L16.5564 7.13565C16.1118 6.69216 15.3923 6.6929 14.9483 7.1368L15.1055 7.29395ZM16.3994 7.29297L16.2423 7.45016C16.5135 7.72114 16.5139 8.16111 16.2432 8.43174L16.4004 8.58887L16.5575 8.746C17.0022 8.3013 17.0009 7.57985 16.5565 7.13578L16.3994 7.29297ZM16.4004 8.58887L16.2433 8.43172L10.2198 14.4542L10.377 14.6113L10.5341 14.7685L16.5575 8.74601L16.4004 8.58887ZM10.377 14.6113L10.22 14.4541C9.8966 14.7768 9.37265 14.7769 9.04966 14.4541L8.89258 14.6113L8.73549 14.7685C9.2322 15.2649 10.0373 15.2644 10.5339 14.7686L10.377 14.6113ZM8.89258 14.6113L9.04971 14.4542L5.85049 11.255L5.69336 11.4121L5.53622 11.5692L8.73544 14.7685L8.89258 14.6113ZM5.69336 11.4121L5.85055 11.255C5.58007 10.9844 5.58007 10.5449 5.85055 10.2743L5.69336 10.1172L5.53617 9.96011C5.09227 10.4043 5.09227 11.125 5.53617 11.5692L5.69336 11.4121ZM5.69336 10.1172L5.85049 10.2743C6.12107 10.0037 6.56041 10.0038 6.8312 10.2744L6.98828 10.1172L7.14536 9.96C6.70114 9.51608 5.98047 9.51581 5.53622 9.96005L5.69336 10.1172ZM6.98828 10.1172L6.83115 10.2743L9.08896 12.5321L9.24609 12.375L9.40323 12.2179L7.14542 9.96005L6.98828 10.1172ZM9.24609 12.375L9.08896 12.5321C9.39055 12.8337 9.87901 12.8333 10.1805 12.5322L10.0234 12.375L9.86642 12.2178C9.73825 12.3457 9.53103 12.3457 9.40323 12.2179L9.24609 12.375ZM10.0234 12.375L10.1806 12.5322L15.2626 7.4511L15.1055 7.29395L14.9483 7.1368L9.86632 12.2178L10.0234 12.375Z" fill="#329D6B"/>
</svg>
