<svg width="20" height="20" viewBox="0 0 20 20" fill="none" xmlns="http://www.w3.org/2000/svg">
<path fill-rule="evenodd" clip-rule="evenodd" d="M17.56 10C17.56 14.1753 14.1753 17.56 10 17.56C5.82473 17.56 2.44 14.1753 2.44 10C2.44 5.82473 5.82473 2.44 10 2.44C14.1753 2.44 17.56 5.82473 17.56 10ZM19 10C19 14.9706 14.9706 19 10 19C5.02944 19 1 14.9706 1 10C1 5.02944 5.02944 1 10 1C14.9706 1 19 5.02944 19 10ZM13.6949 6.66424C14.0166 6.34248 14.5382 6.34237 14.8601 6.66401C15.1821 6.98579 15.1822 7.50771 14.8603 7.82961L9.44009 13.2498C9.07105 13.6189 8.47271 13.6189 8.10366 13.2498L5.22451 10.3707C4.90277 10.0489 4.90277 9.52729 5.22451 9.20555C5.54624 8.88382 6.06788 8.88381 6.38962 9.20555L8.42183 11.2378C8.61515 11.4311 8.92858 11.4311 9.12189 11.2377L13.6949 6.66424Z" fill="currentColor"/>
<path d="M14.8601 6.66401L14.7187 6.80548L14.7187 6.80548L14.8601 6.66401ZM13.6949 6.66424L13.5535 6.52283L13.6949 6.66424ZM14.8603 7.82961L14.7189 7.68818V7.68818L14.8603 7.82961ZM9.44009 13.2498L9.58151 13.3912L9.44009 13.2498ZM8.10366 13.2498L8.24508 13.1084L8.10366 13.2498ZM5.22451 10.3707L5.08309 10.5121L5.22451 10.3707ZM5.22451 9.20555L5.36593 9.34697L5.22451 9.20555ZM6.38962 9.20555L6.2482 9.34697L6.38962 9.20555ZM8.42183 11.2378L8.56325 11.0963L8.42183 11.2378ZM9.12189 11.2377L8.98046 11.0963H8.98046L9.12189 11.2377ZM10 17.76C14.2857 17.76 17.76 14.2857 17.76 10H17.36C17.36 14.0648 14.0648 17.36 10 17.36V17.76ZM2.24 10C2.24 14.2857 5.71427 17.76 10 17.76V17.36C5.93518 17.36 2.64 14.0648 2.64 10H2.24ZM10 2.24C5.71427 2.24 2.24 5.71427 2.24 10H2.64C2.64 5.93518 5.93518 2.64 10 2.64V2.24ZM17.76 10C17.76 5.71427 14.2857 2.24 10 2.24V2.64C14.0648 2.64 17.36 5.93518 17.36 10H17.76ZM10 19.2C15.081 19.2 19.2 15.081 19.2 10H18.8C18.8 14.8601 14.8601 18.8 10 18.8V19.2ZM0.8 10C0.8 15.081 4.91898 19.2 10 19.2V18.8C5.13989 18.8 1.2 14.8601 1.2 10H0.8ZM10 0.8C4.91898 0.8 0.8 4.91898 0.8 10H1.2C1.2 5.13989 5.13989 1.2 10 1.2V0.8ZM19.2 10C19.2 4.91898 15.081 0.8 10 0.8V1.2C14.8601 1.2 18.8 5.13989 18.8 10H19.2ZM15.0015 6.52253C14.6015 6.12284 13.9533 6.12297 13.5535 6.52283L13.8363 6.80566C14.08 6.56199 14.475 6.56191 14.7187 6.80548L15.0015 6.52253ZM15.0017 7.97103C15.4017 7.57101 15.4016 6.92241 15.0015 6.52253L14.7187 6.80548C14.9626 7.04916 14.9627 7.44441 14.7189 7.68818L15.0017 7.97103ZM9.58151 13.3912L15.0017 7.97103L14.7189 7.68818L9.29867 13.1084L9.58151 13.3912ZM7.96224 13.3912C8.40939 13.8384 9.13436 13.8384 9.58151 13.3912L9.29867 13.1084C9.00773 13.3993 8.53602 13.3993 8.24508 13.1084L7.96224 13.3912ZM5.08309 10.5121L7.96224 13.3912L8.24508 13.1084L5.36593 10.2292L5.08309 10.5121ZM5.08309 9.06413C4.68324 9.46397 4.68324 10.1122 5.08309 10.5121L5.36593 10.2292C5.12229 9.98561 5.12229 9.59061 5.36593 9.34697L5.08309 9.06413ZM6.53104 9.06413C6.1312 8.66429 5.48293 8.66429 5.08309 9.06413L5.36593 9.34697C5.60956 9.10334 6.00457 9.10334 6.2482 9.34697L6.53104 9.06413ZM8.56325 11.0963L6.53104 9.06413L6.2482 9.34697L8.28041 11.3792L8.56325 11.0963ZM8.98046 11.0963C8.86525 11.2115 8.67846 11.2115 8.56325 11.0963L8.28041 11.3792C8.55183 11.6506 8.9919 11.6506 9.26331 11.3792L8.98046 11.0963ZM13.5535 6.52283L8.98046 11.0963L9.26331 11.3792L13.8363 6.80566L13.5535 6.52283Z" fill="currentColor"/>
</svg>
